<svg xmlns="http://www.w3.org/2000/svg" xmlns:xlink="http://www.w3.org/1999/xlink" width="1080" zoomAndPan="magnify" viewBox="0 0 810 809.999993" height="1080" preserveAspectRatio="xMidYMid meet" version="1.0"><defs><clipPath id="be6bad7b5f"><path d="M 0 70.367188 L 809 70.367188 L 809 739.367188 L 0 739.367188 Z M 0 70.367188 " clip-rule="nonzero"/></clipPath></defs><g clip-path="url(#be6bad7b5f)"><path fill="#000000" d="M 773.722656 70.789062 L 34.875 70.789062 C 15.511719 70.789062 -0.203125 86.496094 -0.203125 105.851562 C -0.203125 125.347656 15.511719 140.914062 34.875 140.914062 L 363.890625 140.914062 L 363.890625 244.5625 C 329.515625 210.621094 282.234375 189.582031 230.179688 189.582031 C 125.089844 189.582031 39.785156 274.996094 39.785156 379.902344 C 39.785156 484.8125 125.089844 570.226562 230.179688 570.226562 C 282.234375 570.226562 329.515625 549.1875 363.890625 515.246094 L 363.890625 705.289062 C 363.890625 724.640625 379.464844 740.351562 398.96875 740.351562 C 418.328125 740.351562 434.042969 724.640625 434.042969 705.289062 L 434.042969 433.761719 C 446.8125 428.429688 455.511719 415.949219 455.511719 401.503906 C 455.511719 335.304688 509.527344 281.308594 575.738281 281.308594 C 642.101562 281.308594 695.980469 335.304688 695.980469 401.503906 C 695.980469 467.839844 642.101562 521.699219 575.738281 521.699219 C 556.375 521.699219 540.660156 537.40625 540.660156 556.761719 C 540.660156 576.117188 556.375 591.824219 575.738281 591.824219 C 680.6875 591.824219 766.132812 506.410156 766.132812 401.503906 C 766.132812 296.59375 680.699219 211.179688 575.753906 211.179688 C 519.488281 211.179688 468.839844 235.726562 434.042969 274.574219 L 434.042969 140.914062 L 773.722656 140.914062 C 793.085938 140.914062 808.800781 125.347656 808.800781 105.851562 C 808.800781 86.496094 793.085938 70.789062 773.722656 70.789062 Z M 230.179688 500.097656 C 163.828125 500.097656 109.9375 446.242188 109.9375 379.902344 C 109.9375 313.707031 163.828125 259.707031 230.179688 259.707031 C 296.402344 259.707031 350.292969 313.707031 350.292969 379.902344 C 350.28125 446.242188 296.402344 500.097656 230.179688 500.097656 Z M 230.179688 500.097656 " fill-opacity="1" fill-rule="nonzero"/></g></svg>