<svg xmlns="http://www.w3.org/2000/svg" xmlns:xlink="http://www.w3.org/1999/xlink" width="1080" zoomAndPan="magnify" viewBox="0 0 810 809.999993" height="1080" preserveAspectRatio="xMidYMid meet" version="1.0"><path fill="#000000" d="M 710.523438 0 L 713.636719 196.269531 C 707.40625 196.269531 701.171875 196.269531 691.824219 196.269531 C 682.476562 196.269531 679.363281 193.152344 676.246094 183.808594 C 676.246094 177.578125 673.128906 174.460938 673.128906 168.230469 C 654.433594 99.691406 617.039062 62.308594 548.488281 62.308594 C 455.007812 62.308594 314.785156 62.308594 311.667969 62.308594 C 308.550781 62.308594 302.320312 62.308594 302.320312 68.539062 C 377.105469 168.230469 451.890625 267.921875 529.792969 367.617188 C 439.425781 473.539062 258.695312 685.382812 258.695312 685.382812 C 258.695312 685.382812 476.816406 685.382812 592.113281 685.382812 C 654.433594 685.382812 698.058594 666.691406 719.871094 610.617188 C 722.984375 604.382812 726.101562 601.269531 726.101562 595.039062 C 735.449219 554.539062 772.84375 560.769531 772.84375 560.769531 L 726.101562 810 C 726.101562 810 96.660156 810 87.3125 810 C 77.964844 810 71.730469 803.769531 71.730469 800.652344 C 183.910156 666.691406 289.855469 538.960938 402.03125 405 C 289.855469 267.921875 71.730469 0 71.730469 0 Z M 710.523438 0 " fill-opacity="1" fill-rule="nonzero"/></svg>